<svg width="120" height="40" viewBox="0 0 120 40" fill="none" xmlns="http://www.w3.org/2000/svg"><g clip-path="url(#clip0)"><path d="M110.444 3.00293e-07H9.56145C9.19372 3.00293e-07 8.8304 3.00352e-07 8.46364 0.0020003C8.15663 0.0040003 7.85207 0.0098103 7.54211 0.0147003C6.86874 0.0226021 6.19695 0.0816766 5.53259 0.19141C4.86915 0.303533 4.2265 0.514916 3.62637 0.81841C3.02697 1.12447 2.47929 1.52217 2.00318 1.99707C1.52457 2.47064 1.12561 3.01802 0.82165 3.61816C0.516847 4.21711 0.305496 4.85894 0.194896 5.52148C0.083244 6.18319 0.0231632 6.85252 0.0151925 7.52348C0.00588648 7.83008 0.00490373 8.1377 0 8.44434V31.5586C0.00490373 31.8691 0.00588648 32.1699 0.0151925 32.4805C0.0231657 33.1514 0.0832464 33.8207 0.194896 34.4824C0.30519 35.1453 0.516554 35.7875 0.82165 36.3867C1.12548 36.9849 1.52449 37.5301 2.00318 38.001C2.47748 38.478 3.02552 38.876 3.62637 39.1797C4.2265 39.484 4.86908 39.6966 5.53259 39.8105C6.19707 39.9194 6.86879 39.9785 7.54211 39.9873C7.85207 39.9941 8.15663 39.998 8.46364 39.998C8.83039 40 9.19374 40 9.56145 40H110.444C110.804 40 111.171 40 111.531 39.998C111.837 39.998 112.15 39.9941 112.455 39.9873C113.128 39.9789 113.798 39.9198 114.461 39.8105C115.127 39.6958 115.772 39.4833 116.375 39.1797C116.975 38.8758 117.522 38.4778 117.996 38.001C118.474 37.5282 118.874 36.9835 119.181 36.3867C119.484 35.7871 119.693 35.1449 119.802 34.4824C119.914 33.8206 119.976 33.1515 119.988 32.4805C119.992 32.1699 119.992 31.8691 119.992 31.5586C120 31.1953 120 30.834 120 30.4648V9.53613C120 9.16992 120 8.80664 119.992 8.44434C119.992 8.1377 119.992 7.83008 119.988 7.52344C119.976 6.85242 119.914 6.18324 119.802 5.52144C119.693 4.85928 119.484 4.2175 119.181 3.61812C118.562 2.4152 117.581 1.43603 116.375 0.81832C115.772 0.515568 115.127 0.304241 114.461 0.19132C113.798 0.0811031 113.128 0.0220081 112.455 0.0145603C112.15 0.0096803 111.837 0.0038203 111.531 0.0018703C111.171 -0.0001297 110.804 -0.0001297 110.444 -0.0001297V3.00293e-07Z" fill="#A6A6A6"></path><path d="M8.59308 39.25C8.28754 39.25 7.98939 39.2461 7.68625 39.2393C7.05827 39.2311 6.43176 39.1766 5.81186 39.0762C5.23383 38.9769 4.67388 38.7923 4.15047 38.5283C3.63186 38.2665 3.15885 37.9233 2.74955 37.5117C2.33433 37.105 1.98863 36.6332 1.72617 36.1152C1.46082 35.5938 1.27718 35.0349 1.18165 34.458C1.07848 33.8381 1.02267 33.2113 1.01468 32.583C1.00832 32.3721 1 31.6699 1 31.6699V8.56934C1 8.56934 1.00886 7.87793 1.01473 7.6748C1.02238 7.04748 1.07787 6.42165 1.18073 5.80273C1.27643 5.22425 1.46022 4.66375 1.72571 4.14063C1.98721 3.62294 2.33098 3.15086 2.7437 2.74268C3.15596 2.33062 3.63049 1.9856 4.14998 1.72021C4.67218 1.45709 5.23108 1.27373 5.80794 1.17627C6.42988 1.07484 7.05856 1.02 7.68871 1.01221L8.59357 1H111.651L112.566 1.0127C113.191 1.0201 113.814 1.07445 114.43 1.17529C115.013 1.27398 115.577 1.45862 116.105 1.72314C117.146 2.25799 117.993 3.10416 118.527 4.14307C118.789 4.66258 118.969 5.21851 119.064 5.79199C119.168 6.41599 119.226 7.04674 119.238 7.6792C119.241 7.9624 119.241 8.2666 119.241 8.56934C119.249 8.94434 119.249 9.30127 119.249 9.66113V30.5898C119.249 30.9531 119.249 31.3076 119.241 31.665C119.241 31.9902 119.241 32.2881 119.237 32.5947C119.226 33.2159 119.168 33.8354 119.066 34.4482C118.972 35.0293 118.79 35.5925 118.524 36.1182C118.26 36.6306 117.916 37.0983 117.506 37.5039C117.096 37.9177 116.622 38.2629 116.103 38.5264C115.576 38.7924 115.012 38.9777 114.43 39.0762C113.81 39.1772 113.183 39.2317 112.555 39.2393C112.262 39.2461 111.954 39.25 111.656 39.25L110.568 39.252L8.59308 39.25Z" fill="black"></path><path d="M24.8389 20.3277C24.8496 19.493 25.072 18.6746 25.4851 17.9487C25.8983 17.2227 26.4889 16.6128 27.202 16.1756C26.749 15.5305 26.1514 14.9995 25.4566 14.625C24.7619 14.2504 23.9891 14.0426 23.1997 14.0179C21.5157 13.8417 19.8832 15.0228 19.0251 15.0228C18.1504 15.0228 16.8292 14.0354 15.4064 14.0646C14.4862 14.0943 13.5893 14.3611 12.8033 14.8392C12.0172 15.3172 11.3687 15.9902 10.921 16.7925C8.98154 20.1409 10.4282 25.062 12.286 27.7686C13.2155 29.0939 14.3018 30.5744 15.7232 30.5219C17.1142 30.4643 17.6337 29.6374 19.3127 29.6374C20.9761 29.6374 21.4635 30.5219 22.9138 30.4885C24.4063 30.4643 25.3467 29.1573 26.2436 27.8194C26.9115 26.875 27.4254 25.8313 27.7663 24.7268C26.8992 24.3611 26.1592 23.7489 25.6386 22.9666C25.118 22.1843 24.8399 21.2665 24.8389 20.3277Z" fill="white"></path><path d="M22.2557 12.4906C23.0695 11.5164 23.4704 10.2642 23.3733 9C22.13 9.13022 20.9815 9.72278 20.1567 10.6596C19.7535 11.1173 19.4446 11.6497 19.2478 12.2265C19.051 12.8033 18.9701 13.413 19.0098 14.021C19.6317 14.0274 20.2469 13.893 20.8092 13.6279C21.3714 13.3628 21.866 12.9739 22.2557 12.4906Z" fill="white"></path><path d="M42.8971 27.0616H38.1504L37.0105 30.418H35L39.496 18H41.5848L46.0808 30.418H44.036L42.8971 27.0616ZM38.642 25.5127H42.4046L40.5498 20.0655H40.4979L38.642 25.5127Z" fill="white"></path><path d="M55.5523 25.6237C55.5523 28.4372 54.0422 30.2448 51.7634 30.2448C51.1861 30.275 50.612 30.1423 50.1068 29.8622C49.6016 29.5821 49.1857 29.1657 48.9067 28.6608H48.8636V33.1452H47V21.0964H48.8039V22.6023H48.8382C49.13 22.0998 49.5529 21.6856 50.0619 21.4038C50.571 21.1219 51.1471 20.983 51.7291 21.0017C54.0333 21.0017 55.5523 22.8181 55.5523 25.6237ZM53.6368 25.6237C53.6368 23.7907 52.6868 22.5857 51.2375 22.5857C49.8136 22.5857 48.8558 23.8161 48.8558 25.6237C48.8558 27.448 49.8136 28.6696 51.2375 28.6696C52.6868 28.6696 53.6368 27.4734 53.6368 25.6237Z" fill="white"></path><path d="M65.5523 25.6237C65.5523 28.4372 64.0422 30.2448 61.7634 30.2448C61.1861 30.2749 60.612 30.1423 60.1068 29.8622C59.6016 29.5821 59.1857 29.1657 58.9067 28.6608H58.8636V33.1452H57V21.0964H58.8039V22.6022H58.8381C59.1299 22.0998 59.5528 21.6856 60.0619 21.4038C60.5709 21.1219 61.1471 20.983 61.7291 21.0017C64.0334 21.0017 65.5523 22.8181 65.5523 25.6237ZM63.6368 25.6237C63.6368 23.7907 62.6868 22.5857 61.2375 22.5857C59.8136 22.5857 58.8558 23.8161 58.8558 25.6237C58.8558 27.448 59.8136 28.6696 61.2375 28.6696C62.6869 28.6696 63.6368 27.4733 63.6368 25.6237H63.6368Z" fill="white"></path><path d="M71.9077 27.1651C72.0458 28.3965 73.2455 29.2051 74.8848 29.2051C76.4556 29.2051 77.5857 28.3965 77.5857 27.2861C77.5857 26.3223 76.9041 25.7451 75.2902 25.3496L73.6763 24.9619C71.3897 24.4111 70.3281 23.3447 70.3281 21.6143C70.3281 19.4717 72.2005 18 74.8593 18C77.4907 18 79.2946 19.4717 79.3553 21.6143H77.4741C77.3614 20.375 76.3341 19.627 74.8329 19.627C73.3316 19.627 72.3043 20.3838 72.3043 21.4854C72.3043 22.3633 72.9605 22.8799 74.5655 23.2754L75.9375 23.6113C78.4925 24.2138 79.5541 25.2373 79.5541 27.0537C79.5541 29.3769 77.6983 30.832 74.7467 30.832C71.985 30.832 70.1205 29.4111 70 27.165L71.9077 27.1651Z" fill="white"></path><path d="M84.1925 19V21.1426H85.919V22.6143H84.1925V27.6055C84.1925 28.3809 84.5382 28.7422 85.2972 28.7422C85.5021 28.7386 85.7068 28.7243 85.9102 28.6992V30.1621C85.569 30.2257 85.2222 30.2545 84.8751 30.248C83.037 30.248 82.3201 29.5595 82.3201 27.8037V22.6143H81V21.1426H82.3201V19H84.1925Z" fill="white"></path><path d="M87 25.6387C87 22.79 88.6824 21 91.306 21C93.9384 21 95.613 22.79 95.613 25.6387C95.613 28.4951 93.9472 30.2773 91.306 30.2773C88.6657 30.2773 87 28.4951 87 25.6387ZM93.7141 25.6387C93.7141 23.6846 92.8161 22.5312 91.306 22.5312C89.7959 22.5312 88.8989 23.6934 88.8989 25.6387C88.8989 27.6006 89.7959 28.7451 91.306 28.7451C92.8161 28.7451 93.7141 27.6006 93.7141 25.6387H93.7141Z" fill="white"></path><path d="M97 21.0963H98.7774V22.6373H98.8206C98.9408 22.156 99.2236 21.7307 99.6213 21.4328C100.019 21.1349 100.507 20.9826 101.004 21.0016C101.219 21.0008 101.433 21.0241 101.643 21.0709V22.8092C101.372 22.7266 101.089 22.6886 100.806 22.6969C100.535 22.6859 100.265 22.7335 100.014 22.8364C99.7638 22.9393 99.5386 23.095 99.3541 23.2929C99.1696 23.4908 99.0303 23.7262 98.9456 23.9829C98.8609 24.2395 98.833 24.5114 98.8636 24.7799V30.15H97L97 21.0963Z" fill="white"></path><path d="M110.19 27.5059C109.939 29.1494 108.334 30.2773 106.281 30.2773C103.639 30.2773 102 28.5127 102 25.6816C102 22.8418 103.648 21 106.202 21C108.714 21 110.294 22.7207 110.294 25.4658V26.1025H103.881V26.2148C103.852 26.548 103.893 26.8837 104.004 27.1995C104.114 27.5154 104.291 27.8042 104.522 28.0467C104.753 28.2893 105.033 28.48 105.344 28.6063C105.654 28.7326 105.988 28.7916 106.324 28.7793C106.764 28.8204 107.206 28.7187 107.584 28.4893C107.962 28.2598 108.255 27.9149 108.42 27.5058L110.19 27.5059ZM103.89 24.8037H108.429C108.446 24.5041 108.4 24.2043 108.295 23.9231C108.19 23.6419 108.028 23.3853 107.819 23.1696C107.61 22.9538 107.358 22.7835 107.08 22.6693C106.802 22.555 106.503 22.4994 106.202 22.5059C105.899 22.5041 105.598 22.5622 105.317 22.6769C105.036 22.7917 104.781 22.9607 104.566 23.1744C104.351 23.388 104.181 23.642 104.065 23.9216C103.949 24.2013 103.889 24.5011 103.89 24.8037V24.8037Z" fill="white"></path><path d="M36.3935 11.6831H37.1936C37.3314 11.7002 37.4712 11.6886 37.6042 11.6492C37.7372 11.6098 37.8606 11.5433 37.9666 11.4539C38.0726 11.3645 38.1589 11.2543 38.22 11.13C38.2811 11.0057 38.3158 10.8702 38.3218 10.7319C38.3218 10.1816 37.9066 9.82615 37.2024 9.82615C37.0613 9.80649 36.9177 9.81522 36.78 9.85183C36.6424 9.88843 36.5135 9.95218 36.4009 10.0393C36.2883 10.1264 36.1944 10.2351 36.1247 10.359C36.055 10.4829 36.0109 10.6195 35.995 10.7607H35.1165C35.1316 10.5044 35.1995 10.254 35.3159 10.025C35.4323 9.79594 35.5947 9.59328 35.793 9.42957C35.9914 9.26587 36.2214 9.14463 36.4687 9.07341C36.7161 9.00219 36.9755 8.98251 37.2308 9.0156C38.4089 9.0156 39.2384 9.67331 39.2384 10.6201C39.2412 10.9373 39.1348 11.2458 38.937 11.4942C38.7391 11.7425 38.4618 11.9157 38.1514 11.9848V12.0551C38.5194 12.0714 38.866 12.2323 39.1154 12.5027C39.3648 12.7731 39.4967 13.1309 39.4823 13.498C39.455 13.7619 39.3752 14.0177 39.2476 14.2505C39.1199 14.4832 38.947 14.6882 38.7388 14.8534C38.5307 15.0186 38.2916 15.1408 38.0355 15.2126C37.7794 15.2845 37.5115 15.3047 37.2475 15.2719C36.9829 15.3079 36.7138 15.2904 36.4562 15.2204C36.1986 15.1505 35.9578 15.0295 35.748 14.8647C35.5383 14.7 35.364 14.4948 35.2354 14.2614C35.1069 14.028 35.0269 13.7712 35 13.5063H35.8921C35.946 14.0771 36.4719 14.4453 37.2475 14.4453C38.0231 14.4453 38.5294 14.0318 38.5294 13.4487C38.5294 12.8574 38.0525 12.4932 37.2191 12.4932H36.3935V11.6831Z" fill="white"></path><path d="M40 14.3164C40 13.5059 40.6062 13.0386 41.6795 12.9722L42.9027 12.9019V12.5132C42.9027 12.0376 42.5883 11.769 41.9782 11.769C41.4807 11.769 41.137 11.9512 41.0371 12.2695H40.1743C40.2654 11.4961 40.996 11 42.0203 11C43.1524 11 43.7909 11.562 43.7909 12.5132V15.5898H42.932V14.957H42.8615C42.7184 15.184 42.5174 15.3691 42.2792 15.4933C42.0409 15.6175 41.7738 15.6764 41.5052 15.664C41.3156 15.6837 41.124 15.6635 40.9428 15.6048C40.7615 15.5461 40.5946 15.4502 40.4528 15.3232C40.3109 15.1963 40.1974 15.0411 40.1194 14.8677C40.0414 14.6942 40.0007 14.5065 40 14.3164ZM42.9027 13.9316V13.5552L41.7999 13.6255C41.1781 13.667 40.896 13.8779 40.896 14.2749C40.896 14.6802 41.2486 14.916 41.7334 14.916C41.8754 14.9303 42.0189 14.916 42.1553 14.874C42.2917 14.8319 42.4182 14.7629 42.5273 14.671C42.6364 14.5792 42.7258 14.4664 42.7903 14.3394C42.8548 14.2123 42.893 14.0737 42.9027 13.9316Z" fill="white"></path><path d="M46.8912 11.748V15.5029H46V11H48.9732V11.748L46.8912 11.748Z" fill="white"></path><path d="M54.2169 13.3247C54.2169 14.7553 53.4912 15.6523 52.3513 15.6523C52.0715 15.6714 51.792 15.6103 51.5458 15.4763C51.2997 15.3423 51.097 15.141 50.9617 14.896H50.8912V17.0752H50V11.0752H50.8579V11.8193H50.9245C51.0622 11.5658 51.2675 11.3551 51.5177 11.2106C51.768 11.0661 52.0534 10.9934 52.3425 11.0005C53.4912 11.0004 54.2169 11.8935 54.2169 13.3247ZM53.3003 13.3247C53.3003 12.3735 52.8488 11.7988 52.0938 11.7988C51.3437 11.7988 50.8745 12.3857 50.8745 13.3286C50.8745 14.2671 51.3436 14.8545 52.0898 14.8545C52.8488 14.8544 53.3003 14.2797 53.3003 13.3247Z" fill="white"></path><path d="M55.4603 17.1157V16.3506C55.5567 16.3628 55.6539 16.3684 55.7511 16.3672C55.941 16.3812 56.1294 16.3248 56.2801 16.2088C56.4308 16.0929 56.5333 15.9255 56.5679 15.7388L56.6345 15.5195L55 11H55.9705L57.1026 14.5767H57.1731L58.3013 11H59.2463L57.5629 15.689C57.177 16.7847 56.7501 17.1362 55.8295 17.1362C55.7551 17.1362 55.5436 17.1279 55.4603 17.1157Z" fill="white"></path><path d="M60 14.3268H60.8873C60.9744 14.7238 61.3475 14.9308 61.8695 14.9308C62.463 14.9308 62.8273 14.67 62.8273 14.2648C62.8273 13.8307 62.5002 13.6237 61.8695 13.6237H61.1938V12.9332H61.8577C62.3964 12.9332 62.6706 12.7267 62.6706 12.3502C62.6706 12.0197 62.4052 11.7672 61.8577 11.7672C61.3593 11.7672 60.995 11.9782 60.9372 12.3336H60.0783C60.1426 11.9252 60.365 11.5582 60.6977 11.3115C61.0305 11.0649 61.447 10.9583 61.8577 11.0148C62.9311 11.0148 63.5451 11.4987 63.5451 12.2594C63.5501 12.4713 63.482 12.6784 63.3523 12.8462C63.2225 13.014 63.0389 13.1323 62.8321 13.1813V13.2516C63.0783 13.2833 63.3042 13.4039 63.467 13.5907C63.6299 13.7774 63.7183 14.0173 63.7155 14.2648C63.7155 15.1208 62.9849 15.6871 61.8695 15.6871C60.8833 15.6871 60.0823 15.2364 60 14.3268Z" fill="white"></path><path d="M65 15.5029V11H65.8833V14.0972H65.9538L68.0349 11H68.9182V15.5029H68.0349V12.3892H67.9683L65.8833 15.5029L65 15.5029Z" fill="white"></path><path d="M73.7361 11.748H72.3141V15.5029H71.422V11.748H70V11H73.7361V11.748Z" fill="white"></path><path d="M78.0628 14.3741C77.9414 14.7856 77.6788 15.1415 77.321 15.3796C76.9632 15.6177 76.5329 15.7229 76.1052 15.6768C75.8077 15.6847 75.512 15.6278 75.2388 15.5103C74.9655 15.3928 74.7212 15.2174 74.5227 14.9962C74.3242 14.7751 74.1764 14.5135 74.0895 14.2297C74.0025 13.9459 73.9786 13.6466 74.0193 13.3526C73.9796 13.0577 74.004 12.7578 74.0908 12.4731C74.1775 12.1885 74.3245 11.9257 74.522 11.7026C74.7194 11.4795 74.9626 11.3014 75.235 11.1802C75.5075 11.059 75.8029 10.9975 76.1013 11.0001C77.3577 11.0001 78.1167 11.8561 78.1167 13.2701V13.5802H74.9281V13.63C74.9139 13.7953 74.9347 13.9617 74.9889 14.1185C75.0431 14.2753 75.1296 14.4191 75.2429 14.5406C75.3561 14.6621 75.4936 14.7586 75.6465 14.8239C75.7994 14.8893 75.9643 14.922 76.1306 14.92C76.3437 14.9454 76.5595 14.907 76.7506 14.8098C76.9417 14.7126 77.0995 14.5609 77.204 14.3741L78.0628 14.3741ZM74.928 12.9229H77.2078C77.2191 12.7719 77.1986 12.6202 77.1475 12.4775C77.0965 12.3348 77.0161 12.2044 76.9115 12.0945C76.807 11.9847 76.6805 11.8979 76.5403 11.8396C76.4001 11.7814 76.2492 11.7531 76.0973 11.7564C75.9432 11.7543 75.7901 11.7831 75.6473 11.841C75.5044 11.8989 75.3747 11.9847 75.2657 12.0935C75.1567 12.2022 75.0706 12.3316 75.0126 12.4741C74.9547 12.6166 74.9259 12.7692 74.9281 12.9229H74.928Z" fill="white"></path><path d="M82 11H84.036C84.9193 11 85.4374 11.4463 85.4374 12.145C85.4387 12.3667 85.3637 12.5822 85.2248 12.7553C85.086 12.9285 84.8917 13.0488 84.6745 13.0962V13.1665C84.9382 13.1831 85.1854 13.3001 85.3651 13.4933C85.5448 13.6865 85.6432 13.9411 85.6401 14.2046C85.6401 14.9902 85.0476 15.5029 84.0565 15.5029H82V11ZM82.8833 11.6821V12.8481H83.7667C84.3053 12.8481 84.5628 12.6416 84.5628 12.2607C84.5628 11.9097 84.3386 11.6821 83.8656 11.6821L82.8833 11.6821ZM82.8833 13.5015V14.8208H83.94C84.4669 14.8208 84.7489 14.5889 84.7489 14.1631C84.7489 13.7124 84.4297 13.5015 83.8284 13.5015L82.8833 13.5015Z" fill="white"></path></g><defs><clipPath id="clip0"><path d="M0 0H120V40H0V0Z" fill="white"></path></clipPath></defs></svg>