<svg xmlns="http://www.w3.org/2000/svg" width="135" height="40" viewBox="0 0 135 40" fill="none"><style>.a{fill:black;opacity:0.1;}.b{fill:white;stroke-miterlimit:10;stroke-width:0.2;stroke:white;}</style><path d="M130 40H5C2.2 40 0 37.8 0 35V5C0 2.2 2.2 0 5 0H130C132.8 0 135 2.2 135 5V35C135 37.7 132.8 40 130 40Z" fill="black"></path><path d="M130 0.8C132.3 0.8 134.2 2.7 134.2 5V35C134.2 37.3 132.3 39.2 130 39.2H5C2.7 39.2 0.8 37.3 0.8 35V5C0.8 2.7 2.7 0.8 5 0.8H130ZM130 0H5C2.2 0 0 2.2 0 5V35C0 37.8 2.2 40 5 40H130C132.8 40 135 37.8 135 35V5C135 2.3 132.8 0 130 0Z" fill="#A6A6A6"></path><path d="M68 21.7C65.6 21.7 63.7 23.5 63.7 26 63.7 28.4 65.6 30.3 68 30.3 70.4 30.3 72.3 28.5 72.3 26 72.3 23.4 70.4 21.7 68 21.7ZM68 28.5C66.7 28.5 65.6 27.4 65.6 25.9 65.6 24.4 66.7 23.3 68 23.3 69.3 23.3 70.4 24.3 70.4 25.9 70.4 27.4 69.3 28.5 68 28.5ZM58.7 21.7C56.3 21.7 54.4 23.5 54.4 26 54.4 28.4 56.3 30.3 58.7 30.3 61.1 30.3 63 28.5 63 26 63 23.4 61.1 21.7 58.7 21.7ZM58.7 28.5C57.4 28.5 56.3 27.4 56.3 25.9 56.3 24.4 57.4 23.3 58.7 23.3 60 23.3 61.1 24.3 61.1 25.9 61.1 27.4 60 28.5 58.7 28.5ZM47.6 23V24.8H51.9C51.8 25.8 51.4 26.6 50.9 27.1 50.3 27.7 49.3 28.4 47.6 28.4 44.9 28.4 42.9 26.3 42.9 23.6 42.9 20.9 45 18.8 47.6 18.8 49 18.8 50.1 19.4 50.9 20.1L52.2 18.8C51.1 17.8 49.7 17 47.7 17 44.1 17 41 20 41 23.6 41 27.2 44.1 30.2 47.7 30.2 49.7 30.2 51.1 29.6 52.3 28.3 53.5 27.1 53.9 25.4 53.9 24.1 53.9 23.7 53.9 23.3 53.8 23H47.6ZM93 24.4C92.6 23.4 91.6 21.7 89.4 21.7 87.2 21.7 85.4 23.4 85.4 26 85.4 28.4 87.2 30.3 89.6 30.3 91.5 30.3 92.7 29.1 93.1 28.4L91.7 27.4C91.2 28.1 90.6 28.6 89.6 28.6 88.6 28.6 88 28.2 87.5 27.3L93.2 24.9 93 24.4ZM87.2 25.8C87.2 24.2 88.5 23.3 89.4 23.3 90.1 23.3 90.8 23.7 91 24.2L87.2 25.8ZM82.5 29.9H84.4V17.4H82.5V29.9ZM79.5 22.6C79 22.1 78.2 21.6 77.2 21.6 75.1 21.6 73.1 23.5 73.1 25.9 73.1 28.3 75 30.1 77.2 30.1 78.2 30.1 79 29.6 79.4 29.1H79.5V29.7C79.5 31.3 78.6 32.2 77.2 32.2 76.1 32.2 75.3 31.4 75.1 30.7L73.5 31.4C74 32.5 75.2 33.9 77.3 33.9 79.5 33.9 81.3 32.6 81.3 29.5V21.9H79.5V22.6ZM77.3 28.5C76 28.5 74.9 27.4 74.9 25.9 74.9 24.4 76 23.3 77.3 23.3 78.6 23.3 79.6 24.4 79.6 25.9 79.6 27.4 78.6 28.5 77.3 28.5ZM101.7 17.4H97.2V29.9H99.1V25.2H101.7C103.8 25.2 105.8 23.7 105.8 21.3 105.8 18.9 103.8 17.4 101.7 17.4ZM101.8 23.4H99.1V19.1H101.8C103.2 19.1 104 20.3 104 21.2 103.9 22.3 103.1 23.4 101.8 23.4ZM113.3 21.6C111.9 21.6 110.5 22.2 110 23.5L111.7 24.2C112.1 23.5 112.7 23.3 113.4 23.3 114.4 23.3 115.3 23.9 115.4 24.9V25C115.1 24.8 114.3 24.5 113.5 24.5 111.7 24.5 109.9 25.5 109.9 27.3 109.9 29 111.4 30.1 113 30.1 114.3 30.1 114.9 29.5 115.4 28.9H115.5V29.9H117.3V25.1C117.1 22.9 115.4 21.6 113.3 21.6ZM113.1 28.5C112.5 28.5 111.6 28.2 111.6 27.4 111.6 26.4 112.7 26.1 113.6 26.1 114.4 26.1 114.8 26.3 115.3 26.5 115.1 27.7 114.1 28.5 113.1 28.5ZM123.6 21.9L121.5 27.3H121.4L119.2 21.9H117.2L120.5 29.5 118.6 33.7H120.5L125.6 21.9H123.6ZM106.8 29.9H108.7V17.4H106.8V29.9Z" fill="white"></path><path d="M10.5 7C10.2 7.3 10 7.8 10 8.4V30.5C10 31.1 10.2 31.6 10.5 31.9L10.6 32 23 19.6V19.5 19.4L10.5 7Z" fill="url(#paint0_linear)"></path><path d="M27.1 24.5L23 20.4V20.2 20.1L27.1 16 27.2 16.1 32.1 18.9C33.5 19.7 33.5 21 32.1 21.8L27.1 24.5Z" fill="url(#paint1_linear)"></path><path d="M26.7 24.2L22.5 20 10 32.5C10.5 33 11.2 33 12.1 32.6L26.7 24.2Z" fill="url(#paint2_linear)"></path><path d="M26.7 15.6L12.1 7.3C11.2 6.8 10.5 6.9 10 7.4L22.5 19.8 26.7 15.6Z" fill="url(#paint3_linear)"></path><path d="M26.6 24L12.1 32.2C11.3 32.7 10.6 32.6 10.1 32.2L10 32.3 10.1 32.4C10.6 32.8 11.3 32.9 12.1 32.4L26.6 24Z" style="fill:black;opacity:0.2"></path><path d="M10.4 32.4C10.1 32.1 10 31.6 10 31V31.1C10 31.7 10.2 32.2 10.5 32.5V32.4H10.4Z" class="a"></path><path d="M32 21.3L27 24.1 27.1 24.2 32 21.4C32.7 21 33 20.5 33 20 33 20.5 32.6 20.9 32 21.3Z" class="a"></path><path d="M12.5 7.4L32 18.5C32.6 18.9 33 19.3 33 19.8 33 19.3 32.7 18.8 32 18.4L12.5 7.3C11.1 6.5 10 7.2 10 8.8V8.9C10 7.3 11.1 6.6 12.5 7.4Z" style="fill:white;opacity:0.3"></path><path d="M41.7 14.3H41V12.3H41.6C42.1 11.9 42.4 11.1 42.4 10V7H46.4V12.3H47.1V14.3H46.4V13H41.8V14.3H41.7ZM43.1 10C43.1 10.9 42.9 11.7 42.5 12.3H45.5V7.8H43V10H43.1Z" class="b"></path><path d="M53.3 12.3C52.7 12.9 52 13.2 51.1 13.2 50.2 13.2 49.5 12.9 48.9 12.3 48.3 11.7 48 11 48 10.1 48 9.2 48.3 8.5 48.9 7.9 49.5 7.3 50.2 7 51.1 7 52 7 52.7 7.3 53.3 7.9 53.9 8.5 54.2 9.2 54.2 10.1 54.2 11 53.9 11.7 53.3 12.3ZM49.5 11.8C49.9 12.2 50.5 12.5 51.1 12.5 51.7 12.5 52.3 12.3 52.7 11.8 53.1 11.4 53.4 10.8 53.4 10.1 53.4 9.4 53.2 8.8 52.7 8.4 52.3 8 51.7 7.7 51.1 7.7 50.5 7.7 49.9 7.9 49.5 8.4 49.1 8.8 48.8 9.4 48.8 10.1 48.8 10.8 49 11.4 49.5 11.8Z" class="b"></path><path d="M58.1 13.2C57.2 13.2 56.5 12.9 55.9 12.3 55.3 11.7 55 11 55 10.1 55 9.2 55.3 8.5 55.9 7.9 56.5 7.3 57.2 7 58.1 7 59 7 59.7 7.3 60.3 8L59.8 8.5C59.4 8 58.8 7.7 58.1 7.7 57.4 7.7 56.9 7.9 56.4 8.4 55.9 8.8 55.7 9.4 55.7 10.1 55.7 10.8 55.9 11.4 56.4 11.8 56.8 12.2 57.4 12.5 58.1 12.5 58.8 12.5 59.4 12.2 59.9 11.6L60.4 12.1C60.1 12.4 59.8 12.7 59.4 12.9 59 13.1 58.6 13.2 58.1 13.2Z" class="b"></path><path d="M63.5 13H62.7V7.7H61V7H65.1V7.7H63.4V13H63.5Z" class="b"></path><path d="M70.8 7L68.5 12.1C68.2 12.8 67.7 13.2 67.1 13.2 66.9 13.2 66.7 13.2 66.5 13.1L66.7 12.4C66.8 12.5 67 12.5 67.1 12.5 67.3 12.5 67.4 12.5 67.5 12.4 67.6 12.3 67.7 12.2 67.8 12L68 11.5 66 7.1H66.9L68.4 10.5 69.8 7.1H70.8V7Z" class="b"></path><path d="M71 13V7H75.3V13H74.5V7.7H71.7V13H71Z" class="b"></path><path d="M77 13V7H77.8V9.6H80.8V7H81.6V13H80.8V10.3H77.8V13H77Z" class="b"></path><path d="M88.3 12.3C87.7 12.9 87 13.2 86.1 13.2 85.2 13.2 84.5 12.9 83.9 12.3 83.3 11.7 83 11 83 10.1 83 9.2 83.3 8.5 83.9 7.9 84.5 7.3 85.2 7 86.1 7 87 7 87.7 7.3 88.3 7.9 88.9 8.5 89.2 9.2 89.2 10.1 89.1 11 88.8 11.7 88.3 12.3ZM84.4 11.8C84.8 12.2 85.4 12.5 86 12.5 86.6 12.5 87.2 12.3 87.6 11.8 88 11.4 88.3 10.8 88.3 10.1 88.3 9.4 88.1 8.8 87.6 8.4 87.2 8 86.6 7.7 86 7.7 85.4 7.7 84.8 7.9 84.4 8.4 84 8.8 83.7 9.4 83.7 10.1 83.7 10.8 84 11.4 84.4 11.8Z" class="b"></path><path d="M92 13V7H94.2C94.7 7 95.1 7.2 95.4 7.5 95.7 7.8 95.9 8.2 95.9 8.7 95.9 9 95.8 9.2 95.7 9.5 95.6 9.7 95.4 9.9 95.1 10 95.4 10.1 95.6 10.3 95.8 10.5 96 10.7 96.1 11 96.1 11.4 96.1 11.9 95.9 12.3 95.6 12.6 95.2 12.9 94.8 13.1 94.3 13.1H92V13ZM92.8 9.6H94.2C94.5 9.6 94.7 9.5 94.9 9.3 95.1 9.1 95.2 8.9 95.2 8.7 95.2 8.5 95.1 8.3 94.9 8.1 94.7 7.9 94.5 7.8 94.2 7.8H92.8V9.6ZM92.8 12.3H94.4C94.7 12.3 94.9 12.2 95.1 12 95.3 11.8 95.4 11.6 95.4 11.3 95.4 11.1 95.3 10.8 95.1 10.6 94.9 10.4 94.7 10.3 94.4 10.3H92.9V12.3H92.8Z" class="b"></path><defs><linearGradient id="paint0_linear" x1="21.9" y1="8.2" x2="5.1" y2="25" gradientUnits="userSpaceOnUse"><stop stop-color="#00A0FF"></stop><stop offset="0.00657445" stop-color="#00A1FF"></stop><stop offset="0.2601" stop-color="#00BEFF"></stop><stop offset="0.5122" stop-color="#00D2FF"></stop><stop offset="0.7604" stop-color="#00DFFF"></stop><stop offset="1" stop-color="#00E3FF"></stop></linearGradient><linearGradient id="paint1_linear" x1="33.9" y1="20.2" x2="9.7" y2="20.2" gradientUnits="userSpaceOnUse"><stop stop-color="#FFE000"></stop><stop offset="0.4087" stop-color="#FFBD00"></stop><stop offset="0.7754" stop-color="#FFA500"></stop><stop offset="1" stop-color="#FF9C00"></stop></linearGradient><linearGradient id="paint2_linear" x1="24.4" y1="22.3" x2="1.7" y2="45.1" gradientUnits="userSpaceOnUse"><stop stop-color="#FF3A44"></stop><stop offset="1" stop-color="#C31162"></stop></linearGradient><linearGradient id="paint3_linear" x1="6.9" y1="0" x2="17.1" y2="10.2" gradientUnits="userSpaceOnUse"><stop stop-color="#32A071"></stop><stop offset="0.0685" stop-color="#2DA771"></stop><stop offset="0.4762" stop-color="#15CF74"></stop><stop offset="0.8009" stop-color="#06E775"></stop><stop offset="1" stop-color="#00F076"></stop></linearGradient></defs></svg>