<svg width="84" height="32" viewBox="0 0 84 32" fill="none" xmlns="http://www.w3.org/2000/svg">
<g clip-path="url(#clip0_45707_6)">
<mask id="mask0_45707_6" style="mask-type:luminance" maskUnits="userSpaceOnUse" x="0" y="0" width="84" height="32">
<path d="M84 0.5H0V31.5H84V0.5Z" fill="white"/>
</mask>
<g mask="url(#mask0_45707_6)">
<path fill-rule="evenodd" clip-rule="evenodd" d="M79.0866 12.7137C78.8976 15.4748 76.885 17.0637 74.963 17.3093C73.0519 17.5535 71.2274 16.4722 71.3722 13.8971C71.6768 8.47293 79.4328 7.6524 79.0866 12.7137ZM75.665 5.80893C71.515 6.20023 68.253 9.22054 67.6109 13.0542C65.8685 23.4596 81.1348 23.2546 82.8736 13.5968C83.7563 8.69373 80.5356 5.34977 75.665 5.80893Z" fill="white"/>
<path fill-rule="evenodd" clip-rule="evenodd" d="M12.3073 0.719972C12.4903 1.10673 12.738 1.15519 12.6588 1.80786L12.0272 5.36262C11.8711 6.22511 10.4826 14.271 10.3125 14.8564C9.31762 18.282 3.98958 18.3268 4.51555 14.52C4.72886 12.9783 5.08461 11.2985 5.36162 9.76245L6.63451 2.62998C6.76715 1.87973 7.22989 0.716553 6.19072 0.716553L2.2619 0.718132C2.5995 1.28065 2.71205 1.29919 2.558 2.13558L0.646059 12.853C0.227266 15.1724 -0.138963 16.9672 1.1794 18.775C2.94949 21.2021 6.6538 21.5166 9.56626 20.3774C10.2604 20.1059 10.9133 19.7428 11.5001 19.309C12.4124 18.6343 13.1883 17.8037 13.7959 16.655C14.3055 15.6912 14.4806 14.7792 14.6912 13.6109L16.79 1.84409C16.9035 1.19379 16.9662 0.716553 16.1822 0.716553L12.3073 0.719972Z" fill="white"/>
<path fill-rule="evenodd" clip-rule="evenodd" d="M37.9162 3.49132L38.7802 11.4024L34.3574 11.4065L37.9162 3.49132ZM30.3778 20.4804C30.328 20.1528 30.1921 20.059 30.2772 19.6441L32.5221 15.1728L39.3036 15.173L39.9687 19.9845C40.0582 20.4357 40.3791 20.483 40.8397 20.4809L44.9939 20.4787C44.8301 20.0841 44.4114 20.1742 44.2701 19.3597L41.3488 1.86649C41.0877 0.301426 41.2765 0.542412 38.9759 0.542412L35.2208 0.547539C35.2229 1.40569 35.6363 0.832649 34.9518 2.13141C31.7622 8.28429 28.5221 14.3756 25.3477 20.4804H30.3778Z" fill="white"/>
<path fill-rule="evenodd" clip-rule="evenodd" d="M24.9305 17.26L18.8705 17.3137L26.4701 9.13259C26.635 8.9759 26.7649 8.85583 26.8321 8.59374C26.9514 8.12847 27.0229 7.51066 27.1127 7.02369C27.2439 6.31151 26.8719 6.18309 26.2074 6.18533L16.9491 6.19242L16.3846 9.47385L22.5784 9.42473L14.9458 17.3936C14.7299 17.6131 14.6524 17.9179 14.5903 18.2585C14.5325 18.5761 14.2688 19.7135 14.3188 19.9598C14.4395 20.5545 15.3131 20.4804 15.9764 20.4804H24.3162L24.9305 17.26Z" fill="white"/>
<path fill-rule="evenodd" clip-rule="evenodd" d="M59.2329 6.2446L54.7876 6.18648C54.8624 6.64728 55.2404 6.63288 55.0972 7.48472L53.337 17.2248L51.5081 17.207C48.8882 17.1879 48.4302 17.0174 48.983 13.9819L50.1988 7.30692C50.421 6.0317 50.0058 6.1855 48.7183 6.1855C47.7969 6.1855 46.8756 6.1855 45.954 6.1855C46.0364 6.43043 46.1936 6.54595 46.264 6.80285C46.3459 7.1021 46.2787 7.37872 46.225 7.675L44.9043 15.3156C44.2261 19.2397 46.935 20.5192 49.6833 20.5192L56.8094 20.4917L59.2329 6.2446Z" fill="white"/>
<path fill-rule="evenodd" clip-rule="evenodd" d="M67.0816 2.04689C65.6758 2.02572 65.3357 2.27012 64.998 3.31435C64.0376 6.10815 62.5679 6.30088 60.1246 6.25018L59.6191 9.25919C60.5332 9.26241 61.4314 9.2749 61.5497 9.30969C62.1217 9.47769 61.8327 10.3183 61.7395 10.8495L60.771 16.3347C60.6692 16.911 60.6799 17.4975 60.7961 18.0292C61.046 19.1717 61.7766 19.8573 62.7237 20.2408C63.6364 20.6101 65.3686 20.7621 66.4137 20.4643L66.9725 17.1965C66.5064 17.2522 65.9942 17.2637 65.5701 17.1345C64.6198 16.8449 64.5458 16.185 64.6942 15.3712L65.8049 9.27793C68.6153 9.27793 68.3464 9.58927 68.6522 7.84799C68.9871 5.94061 69.0173 6.18548 66.3567 6.1839L66.5281 5.20601L67.0816 2.04689Z" fill="white"/>
</g>
<path d="M5.74062 30.2656C5.74062 30.5781 5.6625 30.8711 5.50625 31.1445C5.34739 31.4206 5.1039 31.6458 4.77578 31.8203C4.44765 31.9922 4.02318 32.0781 3.50234 32.0781C3.23932 32.0781 3.01146 32.0664 2.81875 32.043C2.62344 32.0195 2.43984 31.9818 2.26797 31.9297C2.0987 31.875 1.92292 31.8047 1.74062 31.7188V30.3438C2.05052 30.4974 2.36172 30.6159 2.67422 30.6992C2.98932 30.7826 3.27578 30.8242 3.53359 30.8242C3.76276 30.8242 3.93073 30.7852 4.0375 30.707C4.14427 30.6263 4.19765 30.5234 4.19765 30.3984C4.19765 30.2474 4.11953 30.1276 3.96328 30.0391C3.88255 29.9948 3.77578 29.9401 3.64297 29.875C3.51015 29.8073 3.3513 29.7318 3.1664 29.6484C3.02318 29.5833 2.89036 29.5169 2.76797 29.4492C2.64557 29.3789 2.53229 29.306 2.42812 29.2305C2.21979 29.082 2.05963 28.901 1.94765 28.6875C1.83568 28.474 1.77969 28.2044 1.77969 27.8789C1.77969 27.5091 1.87083 27.2018 2.05312 26.957C2.23542 26.7096 2.48672 26.5234 2.80703 26.3984C3.12995 26.2708 3.50495 26.207 3.93203 26.207C4.30703 26.207 4.64297 26.25 4.93984 26.3359C5.23932 26.4219 5.50625 26.5156 5.74062 26.6172L5.26797 27.8086C5.02318 27.6966 4.78229 27.6081 4.54531 27.543C4.30833 27.4753 4.08828 27.4414 3.88515 27.4414C3.68203 27.4414 3.53489 27.4766 3.44375 27.5469C3.3526 27.6146 3.30703 27.7018 3.30703 27.8086C3.30703 27.8997 3.34219 27.9792 3.4125 28.0469C3.48281 28.1172 3.61432 28.2005 3.80703 28.2969C4.00234 28.3932 4.20937 28.4922 4.42812 28.5938C4.56614 28.6589 4.69505 28.7253 4.81484 28.793C4.93463 28.8581 5.04271 28.9271 5.13906 29C5.33177 29.1432 5.48021 29.3164 5.58437 29.5195C5.68854 29.7227 5.74062 29.9714 5.74062 30.2656ZM22.9641 26.2656L24.8508 32H23.1633L22.882 30.9297H21.0266L20.7375 32H19.0422L20.9055 26.2656H22.9641ZM21.593 28.7266L21.3469 29.6641H22.5617L22.3156 28.7266C22.3026 28.6745 22.2857 28.6133 22.2648 28.543C22.2466 28.4701 22.2258 28.3854 22.2023 28.2891C22.1555 28.1016 22.1073 27.9076 22.0578 27.707C22.0109 27.5065 21.9732 27.3398 21.9445 27.207C21.9315 27.2721 21.9159 27.3451 21.8977 27.4258C21.882 27.5065 21.8638 27.5951 21.843 27.6914C21.8013 27.8815 21.757 28.0716 21.7102 28.2617C21.6659 28.4492 21.6268 28.6042 21.593 28.7266ZM40.4375 29.1992L41.2305 26.2891H42.957L41.0859 32H39.2695L37.4062 26.2891H39.1406L39.918 29.1836C39.931 29.2357 39.9453 29.2969 39.9609 29.3672C39.9792 29.4375 39.9974 29.5143 40.0156 29.5977C40.0521 29.7695 40.0872 29.9414 40.1211 30.1133C40.1576 30.2826 40.1784 30.4206 40.1836 30.5273C40.1966 30.4128 40.2161 30.2747 40.2422 30.1133C40.2708 29.944 40.3021 29.776 40.3359 29.6094C40.3724 29.4427 40.4062 29.306 40.4375 29.1992ZM61.6219 29.0234C61.6219 29.6849 61.4982 30.237 61.2508 30.6797C61.0034 31.1224 60.6557 31.4531 60.2078 31.6719C59.7599 31.8906 59.2312 32 58.6219 32H56.7742V26.2891H58.7508C59.6674 26.2891 60.3745 26.5234 60.8719 26.9922C61.3719 27.4609 61.6219 28.138 61.6219 29.0234ZM60.0203 29.0781C60.0203 28.0495 59.6023 27.5352 58.7664 27.5352H58.3172V30.7344H58.6609C59.1323 30.7344 59.476 30.599 59.6922 30.3281C59.9109 30.0573 60.0203 29.6406 60.0203 29.0781ZM81.193 29.1367C81.193 29.7253 81.0992 30.2409 80.9117 30.6836C80.7216 31.1237 80.4208 31.4661 80.0094 31.7109C79.6005 31.9557 79.0706 32.0781 78.4195 32.0781C77.7789 32.0781 77.2542 31.9557 76.8453 31.7109C76.4365 31.4661 76.1331 31.1224 75.9352 30.6797C75.7398 30.237 75.6422 29.7201 75.6422 29.1289C75.6422 28.5326 75.7411 28.0169 75.9391 27.582C76.137 27.1471 76.4391 26.8086 76.8453 26.5664C77.2542 26.3216 77.7815 26.1992 78.4273 26.1992C79.0784 26.1992 79.6083 26.3203 80.0172 26.5625C80.4234 26.8073 80.7203 27.1497 80.9078 27.5898C81.0979 28.0273 81.193 28.543 81.193 29.1367ZM77.2672 29.1367C77.2672 29.6523 77.3557 30.0573 77.5328 30.3516C77.7125 30.6458 78.0081 30.793 78.4195 30.793C78.844 30.793 79.1422 30.6458 79.3141 30.3516C79.4859 30.0573 79.5719 29.6523 79.5719 29.1367C79.5719 28.6185 79.4859 28.2109 79.3141 27.9141C79.1422 27.6146 78.8466 27.4648 78.4273 27.4648C78.0055 27.4648 77.706 27.6146 77.5289 27.9141C77.3544 28.2109 77.2672 28.6185 77.2672 29.1367Z" fill="white"/>
</g>
<defs>
<clipPath id="clip0_45707_6">
<rect width="84" height="32" fill="white"/>
</clipPath>
</defs>
</svg>
